<svg width="62" height="62" viewBox="0 0 62 62" fill="none" xmlns="http://www.w3.org/2000/svg">
<path fill-rule="evenodd" clip-rule="evenodd" d="M49.4298 31.0006C49.4298 20.8225 41.1788 12.5715 31.0006 12.5715C30.1722 12.5715 29.5006 11.8999 29.5006 11.0715C29.5006 10.243 30.1722 9.57147 31.0006 9.57147C42.8356 9.57147 52.4298 19.1656 52.4298 31.0006C52.4298 42.8356 42.8356 52.4297 31.0006 52.4297C19.1657 52.4297 9.57153 42.8356 9.57153 31.0006C9.57153 30.1722 10.2431 29.5006 11.0715 29.5006C11.9 29.5006 12.5715 30.1722 12.5715 31.0006C12.5715 41.1787 20.8225 49.4297 31.0006 49.4297C41.1788 49.4297 49.4298 41.1787 49.4298 31.0006Z" fill="#31AE54"/>
</svg>
